HIERARCHY
ROOT Pelvis
{
	OFFSET 0.000000 0.000000 0.000000
	CHANNELS 6 Xposition Yposition Zposition Xrotation Yrotation Zrotation
	JOINT LeftUpLeg_virtual
	{
		OFFSET 0.000000 0.000000 0.000000
		CHANNELS 3 Xrotation Yrotation Zrotation
		JOINT LeftUpLeg
		{
			OFFSET 18.735201 -5.666702 -4.541200
			CHANNELS 3 Xrotation Yrotation Zrotation
			JOINT LeftLeg
			{
				OFFSET -0.021200 -31.938179 0.493100
				CHANNELS 3 Xrotation Yrotation Zrotation
				JOINT LeftFoot
				{
					OFFSET 0.021200 -31.938179 -4.336299
					CHANNELS 3 Xrotation Yrotation Zrotation
					JOINT LeftToeBase
					{
						OFFSET 0.943001 -26.722000 15.023500
						CHANNELS 3 Xrotation Yrotation Zrotation
						End Site
						{
							OFFSET 0 0 0
						}
					}
				}
			}
		}
	}
	JOINT RightUpLeg_virtual
	{
		OFFSET 0.000000 0.000000 0.000000
		CHANNELS 3 Xrotation Yrotation Zrotation
		JOINT RightUpLeg
		{
			OFFSET -18.735201 -5.666702 -4.541200
			CHANNELS 3 Xrotation Yrotation Zrotation
			JOINT RightLeg
			{
				OFFSET 0.018946 -31.938133 0.493100
				CHANNELS 3 Xrotation Yrotation Zrotation
				JOINT RightFoot
				{
					OFFSET -0.018946 -31.938126 -4.336299
					CHANNELS 3 Xrotation Yrotation Zrotation
					JOINT RightToeBase
					{
						OFFSET -0.943001 -26.722004 15.023500
						CHANNELS 3 Xrotation Yrotation Zrotation
						End Site
						{
							OFFSET 0 0 0
						}
					}
				}
			}
		}
	}
	JOINT Hips_virtual
	{
		OFFSET 0.000000 0.000000 0.000000
		CHANNELS 3 Xrotation Yrotation Zrotation
		JOINT Hips
		{
			OFFSET -0.000000 -0.000000 -0.000000
			CHANNELS 3 Xrotation Yrotation Zrotation
			JOINT Spine
			{
				OFFSET 0.000000 10.199997 -0.299500
				CHANNELS 3 Xrotation Yrotation Zrotation
				JOINT Spine1
				{
					OFFSET 0.000000 11.900002 -1.516600
					CHANNELS 3 Xrotation Yrotation Zrotation
					JOINT Spine2
					{
						OFFSET 0.000000 13.600006 -2.842500
						CHANNELS 3 Xrotation Yrotation Zrotation
						JOINT Neck_virtual
						{
							OFFSET 0.000000 0.000000 0.000000
							CHANNELS 3 Xrotation Yrotation Zrotation
							JOINT Neck
							{
								OFFSET 0.000000 9.624100 -2.890100
								CHANNELS 3 Xrotation Yrotation Zrotation
								JOINT Head
								{
									OFFSET 0.000000 14.068802 -1.351900
									CHANNELS 3 Xrotation Yrotation Zrotation
									End Site
									{
										OFFSET 0 0 0
									}
								}
							}
						}
						JOINT LeftShoulder_virtual
						{
							OFFSET 0.000000 0.000000 0.000000
							CHANNELS 3 Xrotation Yrotation Zrotation
							JOINT LeftShoulder
							{
								OFFSET 15.263000 10.923401 -0.547700
								CHANNELS 3 Xrotation Yrotation Zrotation
								JOINT LeftArm
								{
									OFFSET 25.438599 -2.830597 -13.032500
									CHANNELS 3 Xrotation Yrotation Zrotation
									JOINT LeftForeArm
									{
										OFFSET 29.960503 0.000000 0.000000
										CHANNELS 3 Xrotation Yrotation Zrotation
										JOINT LeftHand
										{
											OFFSET 27.849251 0.000000 0.000000
											CHANNELS 3 Xrotation Yrotation Zrotation
											End Site
											{
												OFFSET 0 0 0
											}
										}
									}
								}
							}
						}
						JOINT RightShoulder_virtual
						{
							OFFSET 0.000000 0.000000 0.000000
							CHANNELS 3 Xrotation Yrotation Zrotation
							JOINT RightShoulder
							{
								OFFSET -15.263000 10.923401 -0.547700
								CHANNELS 3 Xrotation Yrotation Zrotation
								JOINT RightArm
								{
									OFFSET -25.438599 -2.830597 -13.032500
									CHANNELS 3 Xrotation Yrotation Zrotation
									JOINT RightForeArm
									{
										OFFSET -29.960503 0.000000 0.000000
										CHANNELS 3 Xrotation Yrotation Zrotation
										JOINT RightHand
										{
											OFFSET -27.849251 0.000000 0.000000
											CHANNELS 3 Xrotation Yrotation Zrotation
											End Site
											{
												OFFSET 0 0 0
											}
										}
									}
								}
							}
						}
					}
				}
			}
		}
	}
}
MOTION
Frames: 5
Frame Time: 0.03333333
15.987987 83.920387 -24.205521 0.000000 0.000000 0.000000 155.187075 -32.764670 160.118253 -10.672931 37.175712 21.474904 23.212519 20.975636 -0.515617 -15.665495 15.227292 -33.977975 0.000000 0.000000 0.000000 155.187075 -32.764670 160.118253 -68.657096 17.522826 13.137460 38.212234 -0.142764 2.839342 3.905365 -6.199347 7.198507 0.000000 0.000000 0.000000 155.187075 -32.764670 160.118253 0.000001 -0.000002 0.000002 36.528378 3.307555 9.106538 -9.492944 -3.544206 1.029319 0.000000 0.000000 0.000000 -9.577659 -2.347690 1.862312 -2.203841 -0.694558 -1.272269 0.000000 0.000000 0.000000 -9.577659 -2.347690 1.862312 5.989683 -11.042410 24.883361 -67.569163 -3.871104 -45.262284 1.027767 -68.873947 3.943941 0.000000 0.000000 0.000000 -9.577659 -2.347690 1.862312 8.509960 9.073895 -5.156069 -1.011991 0.755832 67.986200 14.251268 26.152543 -5.099715 0.000000 0.000000 0.000000 
15.868114 84.146164 -24.322327 0.000000 0.000000 0.000000 155.492275 -33.176373 160.410462 -9.064007 37.105122 20.434304 21.337822 21.307513 -0.326103 -14.839436 15.012496 -33.756909 0.000000 0.000000 0.000000 155.492275 -33.176373 160.410462 -67.819011 17.316188 12.695046 38.179064 -0.104256 2.838709 3.642766 -6.019392 7.002390 0.000000 0.000000 0.000000 155.492275 -33.176373 160.410462 0.000000 0.000004 -0.000001 36.380091 3.353073 9.172624 -9.351827 -3.570434 1.181060 0.000000 0.000000 0.000000 -9.435597 -2.352110 2.017856 -2.379832 -1.584632 -1.006919 0.000000 0.000000 0.000000 -9.435597 -2.352110 2.017856 5.744833 -10.522764 24.025841 -67.510594 -3.722630 -45.267994 1.348468 -68.597646 4.202980 0.000000 0.000000 0.000000 -9.435597 -2.352110 2.017856 8.424593 8.375889 -5.507272 -1.238763 1.267739 68.329178 13.833015 26.209113 -4.662800 0.000000 0.000000 0.000000 
15.763865 84.352730 -24.401520 0.000000 0.000000 0.000000 155.773133 -33.558236 160.767203 -7.423342 37.016381 19.268606 19.446016 21.654140 -0.127313 -14.020920 14.810160 -33.497232 0.000000 0.000000 0.000000 155.773133 -33.558236 160.767203 -67.081494 17.118570 12.158253 38.256842 -1.131771 2.760892 3.411019 -4.666126 6.868806 0.000000 0.000000 0.000000 155.773133 -33.558236 160.767203 -0.000001 -0.000002 0.000001 36.266071 3.412754 9.267725 -9.262706 -3.564026 1.268314 0.000000 0.000000 0.000000 -9.346576 -2.337918 2.102959 -2.502135 -2.160321 -0.866470 0.000000 0.000000 0.000000 -9.346576 -2.337918 2.102959 5.455861 -10.276587 23.062289 -67.354503 -3.637413 -45.228068 1.900067 -68.291701 4.723998 0.000000 0.000000 0.000000 -9.346576 -2.337918 2.102959 8.353427 7.968177 -5.710314 -1.302528 1.649690 68.639248 13.413290 26.330432 -4.243880 0.000000 0.000000 0.000000 
15.681373 84.533539 -24.444717 0.000000 0.000000 0.000000 156.001712 -33.923255 161.150404 -5.862119 36.879535 18.063395 17.638859 21.985163 0.068973 -13.244982 14.630415 -33.207482 0.000000 0.000000 0.000000 156.001712 -33.923255 161.150404 -66.469919 16.899276 11.615241 38.340355 -0.735622 2.793909 3.190440 -4.701927 6.686276 0.000000 0.000000 0.000000 156.001712 -33.923255 161.150404 0.000001 0.000002 -0.000000 36.084938 3.454534 9.360023 -9.194321 -3.531461 1.288040 0.000000 0.000000 0.000000 -9.278985 -2.316857 2.114173 -2.571634 -2.448531 -0.815628 0.000000 0.000000 0.000000 -9.278985 -2.316857 2.114173 5.194786 -10.040151 22.169462 -67.199110 -3.604884 -45.225059 1.684067 -68.010024 4.498491 0.000000 0.000000 0.000000 -9.278985 -2.316857 2.114173 8.288751 7.822009 -5.816733 -1.139760 2.025645 69.014233 13.262163 26.443697 -4.130517 0.000000 0.000000 0.000000 
15.603896 84.708374 -24.479660 0.000000 0.000000 0.000000 156.222190 -34.288164 161.538373 -4.292265 36.719128 16.844093 15.786136 22.325445 0.275991 -12.450555 14.433943 -32.904894 0.000000 0.000000 0.000000 156.222190 -34.288164 161.538373 -65.883773 16.660985 11.054400 38.437149 -0.318552 2.828945 2.972902 -4.736406 6.501532 0.000000 0.000000 0.000000 156.222190 -34.288164 161.538373 0.000001 0.000001 -0.000000 35.889331 3.495833 9.455917 -9.131078 -3.494105 1.290944 0.000000 0.000000 0.000000 -9.216729 -2.295457 2.103257 -2.630152 -2.676227 -0.783166 0.000000 0.000000 0.000000 -9.216729 -2.295457 2.103257 5.002055 -9.799216 21.431670 -67.066918 -3.635079 -45.270145 0.359681 -67.754800 3.211061 0.000000 0.000000 0.000000 -9.216729 -2.295457 2.103257 8.226024 7.725633 -5.903204 -0.936629 2.400232 69.397563 13.165318 26.553535 -4.076858 0.000000 0.000000 0.000000 
